<?xml version="1.0" encoding="UTF-8"?>

<!--
SPDX-FileCopyrightText: GNOME Design Team

SPDX-License-Identifier: CC0-1.0
-->

<svg width="16" height="16" version="1.1" viewBox="0 0 16 16" xmlns="http://www.w3.org/2000/svg">
 <path d="m9 2c0.83203 0 1.5586 0.34375 2.293 0.78125s1.4648 1.0039 2.1289 1.5977c0.66016 0.59766 1.2539 1.2227 1.707 1.7969 0.22656 0.28906 0.41797 0.5625 0.57031 0.83594 0.15234 0.27734 0.30078 0.53125 0.30078 0.98828s-0.14844 0.71094-0.30078 0.98438c-0.15234 0.27734-0.34375 0.55078-0.57031 0.83594-0.45312 0.57813-1.0469 1.2031-1.707 1.7969-0.66406 0.59766-1.3945 1.1641-2.1289 1.6016s-1.4609 0.78125-2.293 0.78125h-6c-1.6445 0-3-1.3555-3-3v-6c0-1.6445 1.3555-3 3-3zm-1 3c-0.26562 0-0.51953 0.10547-0.70703 0.29297l-1.293 1.293-1.293-1.293c-0.1875-0.1875-0.44141-0.29297-0.70703-0.29297s-0.51953 0.10547-0.70703 0.29297c-0.39062 0.39062-0.39062 1.0234 0 1.4141l1.293 1.293-1.293 1.293c-0.39062 0.39062-0.39062 1.0234 0 1.4141s1.0234 0.39062 1.4141 0l1.293-1.293 1.293 1.293c0.39062 0.39062 1.0234 0.39062 1.4141 0s0.39062-1.0234 0-1.4141l-1.293-1.293 1.293-1.293c0.39062-0.39062 0.39062-1.0234 0-1.4141-0.1875-0.1875-0.44141-0.29297-0.70703-0.29297z"/>
</svg>
