<?xml version="1.0" encoding="UTF-8"?>

<!--
SPDX-FileCopyrightText: GNOME Design Team

SPDX-License-Identifier: CC0-1.0
-->

<svg width="16" height="16" version="1.1" viewBox="0 0 16 16" xmlns="http://www.w3.org/2000/svg">
 <path d="m8 1v2h4c2.1992 0 4 1.8008 4 4v2c0 1.0195-0.38672 1.9648-1.0195 2.6719-0.36719 0.41016-1 0.44531-1.4102 0.07813-0.41406-0.36719-0.44922-1-0.07812-1.4141 0.3164-0.35157 0.50781-0.8125 0.50781-1.3359v-2c0-1.125-0.875-2-2-2h-4v2h-1v-0.007812c-0.26562 0.003906-0.51953-0.10156-0.70703-0.28516l-2-2c-0.39062-0.39062-0.39062-1.0234 0-1.4141l2-2c0.1875-0.18359 0.44141-0.28906 0.70703-0.28516v-0.007812zm-6.2891 3c0.26562-0.011719 0.52344 0.078125 0.71875 0.25781 0.41406 0.36719 0.44922 1 0.078124 1.4102-0.31641 0.35547-0.50781 0.81641-0.50781 1.3398v2c0 1.125 0.875 2 2 2h4v-2.0078h1v0.00781c0.26562-0.00391 0.51953 0.10156 0.70703 0.28516l2 2c0.39062 0.39062 0.39062 1.0234 0 1.4141l-2 2c-0.1875 0.1836-0.44141 0.28906-0.70703 0.28516v0.007812h-1v-1.9922h-4c-2.1992 0-4-1.8047-4-4v-2c0-1.0234 0.38672-1.9688 1.0195-2.6758 0.17578-0.19922 0.42578-0.31641 0.69141-0.33203z"/>
</svg>
